<svg id="eN4ujgqtmc61" xmlns="http://www.w3.org/2000/svg" xmlns:xlink="http://www.w3.org/1999/xlink" viewBox="0 0 420 345" shape-rendering="geometricPrecision" text-rendering="geometricPrecision" project-id="a9270aa72b904c538158be14304df44b" export-id="8c13598fb0214791889001343633e751" cached="false"><path d="M170.91898,97.831958l10.352588-7.246812l8.7997-9.317329l9.317329-5.176295L210,75.573892v7.246812l-4.39985,5.693924-2.070518,6.211553L210,91.620404l8.540885-4.141035l9.834959-6.211553l9.834959-1.035259.517628,6.729182-3.105776,4.141036-4.658666,3.623406-2.070519,5.176294l7.76444,1.035258l7.76444,3.105776l6.211553,2.070517l3.105776-17.5994l5.693923-14.493624l11.905477-12.423106l13.458363-10.352588l15.011253-8.28207l10.870218-1.035259l17.599399.517629l10.870218,1.552888l15.528882,8.799699L365.54763,63.668411l10.870217,15.528881l4.141036,15.011252.517628,11.387846-1.03526,11.387846v10.352587l-2.588147,17.081771-5.176294,11.905475-10.870217,16.175919-12.940736,7.117403-12.940735,5.693924-7.246812,1.552888-7.764441,5.693924-1.552888,15.011252-2.070517,14.493624-5.176295,14.493623-2.070517,10.870217-.51763,3.105776l13.458365.51763l10.352588,1.035258l10.352588,2.070518l10.352588,3.623406l3.623406,5.176294-10.870217-1.552888-11.387847-.51763-10.870218-.517629-9.317329-1.035259l22.258064,5.176294l8.7997,1.552888l11.387847,6.211553l2.588147,5.693924-10.352588-3.105777-15.528882-4.141036-12.423106-1.552889-10.870217,1.035258l21.222805,4.658663l11.905477,4.141035l10.352588,6.729181l5.176294,5.693923-9.317329-2.070517-14.493624-5.176295-18.634658-4.141037-19.152289-3.105777-16.046511,4.141034-11.387847,4.658664-10.870218,5.693922-17.08177,5.693923-18.634659,2.070517-21.222805.517629-14.493624-.51763-8.7997-.517629-11.387847-5.693923-12.423107-7.246812-10.352588-4.658665-5.693923-4.658664-10.870218,3.623405-17.081771,4.658665-18.117029,5.693924-9.317331,5.693923-8.28207,4.658665-10.352588,3.623405l9.834958-8.7997l7.764441-7.764442l13.458365-8.28207l14.493623-5.693924l10.352589-4.141035L90.68641,271.23778l-15.528883,4.658665-13.458364,4.141035-6.729183,1.035259-6.211553.51763l6.729182-5.693924l14.493623-6.211553l15.011253-5.176294l11.387847-2.588147l5.693923,1.552888l8.7997-2.588147l8.282071-2.070517-16.046512-1.035259h-17.5994L71.53412,258.814675l-9.834958-.51763-7.764441-.517629-4.141036-3.105777l11.905477-3.623405l13.975994-1.552889l15.011253-1.035258l12.940735,1.035258l10.870217-2.070517-3.623406-10.352588-5.693923-13.458365-1.552888-7.246812-.51763-13.458364-1.552888-10.352588h-9.834959l-12.423105-5.176295-9.834959-4.658664-9.31733-10.223181-8.799699-9.446737-6.211553-12.423105-5.176294-12.940736-3.623406-12.940735-3.105777-16.564141l4.658664-11.905476l7.246811-15.011253L50.828941,70.39757l6.729181-10.870217q8.282069-4.658665,8.799699-4.658665t10.352588-8.7997l10.870216-.517629l10.870217-4.141035l10.352588-2.070518l12.423106,1.035258l11.905476,6.211553Q143.4846,50.727651,143.4846,51.245281t10.870218,12.423106L161.084,79.197269l9.83498,18.634689Z" transform="translate(.000021 0.00003)" fill="none" stroke="#fff" stroke-width="2"/><path d="M183.859715,270.202551l6.211574,2.070533l4.141014-.000001l5.176315-6.211554l4.141034-4.141051l3.623395-3.623406-4.658663-3.623406h-3.105768-9.317329l-8.7997-.517614-6.211574,3.623391l4.141047,4.141035l2.070527,4.14105l2.588128,4.141023Z" transform="translate(.000002 0.000003)" fill="none" stroke="#fff" stroke-width="2"/><path d="M243.65962,166.77915c31.64758-31.64758,68.33617,24.16855,41.30845,48.19319-29.4281,26.15831-69.8188-19.40744-40.20689-49.01936" fill="none" stroke="#fff" stroke-width="2"/><path d="M165.21182,207.7319c14.80168,0,20.67752-21.81511,13.13323-33.13155-3.36523-5.04785-8.51571-5.32791-13.43171-8.05903-2.65822-1.47679-6.12257-3.35609-9.25296-1.7909-20.49425,10.24712-12.19754,42.98147,10.44688,42.98147" transform="translate(.000001 0.000001)" fill="none" stroke="#fff" stroke-width="2"/><path d="M260.59685,121.58291c-7.50673-3.00269,8.31302-13.46853,8.60028-16.05386.3396-3.05644-6.61031-1.19756-5.44684-4.30014c1.33784-3.56756,6.9761,1.71958,8.31361-.28668c3.35894-5.03842-3.76557-5.04079-1.72006-8.31361c2.0646-3.30336,5.9797,1.23356,7.74025.57335.95178-.35692,5.77861-9.61752,8.02693-6.0202.5828.93249-1.72006,9.2199-1.72006,9.74699c0,.78341-4.04273.61821-4.58682.86003-1.68574.74922-2.83328,3.67098-3.72679,5.16017-2.96231,4.93718,4.68639,3.8083,3.72679,7.1669-.45309,1.58583-7.39553-1.4566-8.88696-.86003-4.0351,1.61404-7.90206,8.24267-10.32034,11.46704" transform="translate(.000001 0.000001)" fill="none" stroke="#fff" stroke-width="2"/><line x1="-36.443642" y1="-1.58107" x2="36.443643" y2="1.58107" transform="translate(107.518 51.5582)" fill="none" stroke="#fff" stroke-width="2" stroke-miterlimit="1"/><line x1="25.033609" y1="-38.999728" x2="-25.03361" y2="38.999729" transform="translate(63.9592 90.5579)" fill="none" stroke="#fff" stroke-width="2" stroke-miterlimit="1"/><line x1="-5.894036" y1="-41.326107" x2="5.894036" y2="41.326107" transform="translate(65.1799 140.043)" fill="none" stroke="#fff" stroke-width="2" stroke-miterlimit="1"/><line x1="-47.298432" y1="23.833575" x2="47.298432" y2="-23.833575" transform="translate(111.258 100.685)" fill="none" stroke="#fff" stroke-width="2" stroke-miterlimit="1"/><line x1="3.095491" y1="-23.772861" x2="-3.095491" y2="23.772861" transform="translate(114.353 76.9121)" fill="none" stroke="#fff" stroke-width="2" stroke-miterlimit="1"/><line x1="-22.521635" y1="6.778356" x2="22.521635" y2="-6.778356" transform="translate(125.976 206.515)" fill="none" stroke="#fff" stroke-width="2" stroke-miterlimit="1"/><line x1="-9.418011" y1="36.801164" x2="9.418011" y2="-36.801164" transform="translate(172.215 127.359)" fill="none" stroke="#fff" stroke-width="2" stroke-miterlimit="1"/><line x1="0" y1="-44.876912" x2="0" y2="44.876913" transform="translate(148.498 126.976)" fill="none" stroke="#fff" stroke-width="2" stroke-miterlimit="1"/><line x1="-13.281099" y1="9.23012" x2="13.281099" y2="-9.23012" transform="translate(161.779 130.813)" fill="none" stroke="#fff" stroke-width="2" stroke-miterlimit="1"/><line x1="-23.095893" y1="-47.878221" x2="23.095893" y2="47.878221" transform="translate(120.865 151.858)" fill="none" stroke="#fff" stroke-width="2" stroke-miterlimit="1"/><line x1="-34.443269" y1="-8.60452" x2="34.443269" y2="8.60452" transform="translate(99.6232 172.765)" fill="none" stroke="#fff" stroke-width="2" stroke-miterlimit="1"/><line x1="-31.53672" y1="8.60452" x2="31.536721" y2="-8.60452" transform="translate(213.17 172.765)" fill="none" stroke="#fff" stroke-width="2" stroke-miterlimit="1"/><line x1="-41.398433" y1="-49.655095" x2="41.398433" y2="49.655095" transform="translate(223.032 239.731)" fill="none" stroke="#fff" stroke-width="2" stroke-miterlimit="1"/><line x1="-17.805804" y1="8.482028" x2="17.805804" y2="-8.482027" transform="translate(240.838 231.249)" fill="none" stroke="#fff" stroke-width="2" stroke-miterlimit="1"/><line x1="15.549378" y1="-36.843646" x2="-15.549378" y2="36.843646" transform="translate(159.511 243.358)" fill="none" stroke="#fff" stroke-width="2" stroke-miterlimit="1"/><line x1="21.691477" y1="-9.18358" x2="-21.691477" y2="9.183579" transform="translate(212.798 190.553)" fill="none" stroke="#fff" stroke-width="2" stroke-miterlimit="1"/><line x1="0" y1="-9.026419" x2="0" y2="9.026419" transform="translate(210 181.526)" fill="none" stroke="#fff" stroke-width="2" stroke-miterlimit="1"/><line x1="2.805758" y1="27.25517" x2="-2.805757" y2="-27.25517" transform="translate(283.372 136.905)" fill="none" stroke="#fff" stroke-width="2" stroke-miterlimit="1"/><line x1="-45.080049" y1="-3.607835" x2="45.080049" y2="3.607835" transform="translate(331.258 143.651)" fill="none" stroke="#fff" stroke-width="2" stroke-miterlimit="1"/><line x1="-26.238798" y1="37.718272" x2="26.238799" y2="-37.718272" transform="translate(339.166 102.325)" fill="none" stroke="#fff" stroke-width="2" stroke-miterlimit="1"/><line x1="-38.264913" y1="-11.88643" x2="38.264914" y2="11.886431" transform="translate(318.831 65.0257)" fill="none" stroke="#fff" stroke-width="2" stroke-miterlimit="1"/><line x1="-43.104074" y1="-9.153222" x2="43.104074" y2="9.153222" transform="translate(301.747 86.0653)" fill="none" stroke="#fff" stroke-width="2" stroke-miterlimit="1"/><line x1="3.826491" y1="13.044499" x2="-3.826491" y2="-13.044499" transform="translate(322.658 103.602)" fill="none" stroke="#fff" stroke-width="2" stroke-miterlimit="1"/><line x1="10.59049" y1="-8.099425" x2="-10.590491" y2="8.099425" transform="translate(291.157 73.1251)" fill="none" stroke="#fff" stroke-width="2" stroke-miterlimit="1"/><line x1="-2.747565" y1="2.396094" x2="2.747565" y2="-2.396094" transform="translate(304.495 62.6296)" fill="none" stroke="#fff" stroke-width="2" stroke-miterlimit="1"/><line x1="-38.505021" y1="-31.082938" x2="38.505021" y2="31.082938" transform="translate(220.138 126.301)" fill="none" stroke="#fff" stroke-width="2" stroke-miterlimit="1"/><line x1="-33.156285" y1="3.372969" x2="33.156285" y2="-3.372969" transform="translate(201.333 140.278)" fill="none" stroke="#fff" stroke-width="2" stroke-miterlimit="1"/><line x1="-10.349608" y1="8.990261" x2="10.349608" y2="-8.99026" transform="translate(230.488 112.593)" fill="none" stroke="#fff" stroke-width="2" stroke-miterlimit="1"/><line x1="0" y1="-1.467809" x2="0" y2="1.467809" transform="translate(220.138 123.051)" fill="none" stroke="#fff" stroke-width="2" stroke-miterlimit="1"/><line x1="-12.23025" y1="-9.18358" x2="12.23025" y2="9.183579" transform="translate(306.601 190.553)" fill="none" stroke="#fff" stroke-width="2" stroke-miterlimit="1"/><line x1="-17.729578" y1="-2.186566" x2="17.729578" y2="2.186566" transform="translate(301.102 215.48)" fill="none" stroke="#fff" stroke-width="2" stroke-miterlimit="1"/><line x1="-9.37314" y1="-28.717785" x2="9.37314" y2="28.717785" transform="translate(281.784 251.484)" fill="none" stroke="#fff" stroke-width="2" stroke-miterlimit="1"/><line x1="-24.865503" y1="17.677326" x2="24.865503" y2="-17.677326" transform="translate(215.972 280.892)" fill="none" stroke="#fff" stroke-width="2" stroke-miterlimit="1"/><line x1="-11.260818" y1="-28.349899" x2="11.260818" y2="28.349899" transform="translate(137.237 234.865)" fill="none" stroke="#fff" stroke-width="2" stroke-miterlimit="1"/><line x1="-26.587378" y1="4.241014" x2="26.587378" y2="-4.241014" transform="translate(189.385 235.49)" fill="none" stroke="#fff" stroke-width="2" stroke-miterlimit="1"/><line x1="-15.797948" y1="-27.605402" x2="15.797948" y2="27.605402" transform="translate(175.309 270.964)" fill="none" stroke="#fff" stroke-width="2" stroke-miterlimit="1"/><line x1="-18.443574" y1="18.859136" x2="18.443574" y2="-18.859136" transform="translate(312.814 162.51)" fill="none" stroke="#fff" stroke-width="2" stroke-miterlimit="1"/><line x1="-24.909267" y1="0" x2="24.909267" y2="0" transform="translate(356.167 109.65)" fill="none" stroke="#fff" stroke-width="2" stroke-miterlimit="1"/></svg>
